<?xml version="1.0" encoding="utf-8"?>
<!-- Generator: Adobe Illustrator 28.0.0, SVG Export Plug-In . SVG Version: 6.00 Build 0)  -->
<svg version="1.0" id="katman_1" xmlns="http://www.w3.org/2000/svg" xmlns:xlink="http://www.w3.org/1999/xlink" x="0px" y="0px"
	 viewBox="0 0 841.89 595.28" style="enable-background:new 0 0 841.89 595.28;" xml:space="preserve">
<style type="text/css">
	.st0{fill:#010202;}
	.st1{fill:#E41817;}
</style>
<path class="st0" d="M470.73,318.39v-40.78h8.1l17.64,26.61v-26.61h8.67v40.78h-8.1l-17.64-26.61v26.61H470.73z"/>
<path class="st0" d="M513.24,318.39v-40.78h26.6v7.52h-17.64v8.97h16.19v7.52h-16.19v9.54h18.22v6.94L513.24,318.39z"/>
<path class="st0" d="M557.2,318.39v-33.55h-12.15v-7.23h32.68v7.52h-12.15v33.26H557.2z"/>
<path class="st0" d="M583.22,316.36v-4.63c3.76,1.74,7.81,2.6,11.86,2.6c2.6,0.29,5.2-0.58,7.23-1.73c1.74-1.16,2.6-3.18,2.6-5.21
	c0-1.45-0.58-2.89-1.73-4.05c-1.74-1.45-3.76-2.6-5.78-3.18l-4.34-1.74c-2.89-0.87-5.49-2.6-7.81-4.63
	c-1.45-1.74-2.31-3.76-2.31-6.07c0-3.18,1.45-6.07,3.76-8.1c3.18-2.02,6.65-3.18,10.41-2.89c2.02,0,3.76,0.29,5.78,0.58
	c1.73,0.29,3.47,0.87,4.92,1.74v4.63c-3.18-1.45-6.94-2.31-10.41-2.6c-6.07,0-9.25,2.02-9.25,6.07c0,1.45,0.58,2.6,1.74,3.47
	c1.73,1.45,3.76,2.31,5.78,3.18l4.34,1.74c2.89,0.87,5.78,2.6,8.1,4.92c1.45,1.74,2.31,4.05,2.31,6.65
	c0.29,3.18-1.16,6.36-3.76,8.39c-3.18,2.31-6.94,3.18-10.7,3.18c-1.45,0-2.89,0-4.34-0.29c-1.45-0.29-2.89-0.58-4.34-0.87
	C585.25,317.52,584.09,316.94,583.22,316.36z"/>
<path class="st0" d="M616.77,299.88v-22.27h5.21v22.27c0,4.92,0.87,8.68,2.6,10.99c4.05,4.34,10.99,4.92,15.33,0.87
	c0.29-0.29,0.58-0.58,0.87-0.87c1.73-2.31,2.6-6.07,2.6-10.99v-22.27h5.2v22.56c0,6.65-1.45,11.28-4.05,14.46
	c-2.61,3.18-6.65,4.63-11.86,4.63c-5.21,0-9.25-1.45-11.86-4.63C618.22,311.45,616.77,306.53,616.77,299.88z"/>
<path class="st0" d="M657.26,318.39v-40.78h5.21v40.78H657.26z"/>
<path class="st0" d="M682.42,318.39v-36.44h-12.73v-4.34h30.94v4.34h-13.01v36.15h-5.2V318.39z"/>
<path class="st0" d="M707.58,318.39v-40.78h25.16v4.34h-19.95v13.3H731v4.34h-18.22v13.88h20.53v4.34h-25.74V318.39z"/>
<path class="st1" d="M252.39,303.93h21.98l-11.57-18.8l-21.4,33.84h-9.83l26.03-40.49c2.02-2.89,5.78-3.47,8.68-1.45
	c0.58,0.29,1.16,0.58,1.45,1.16l26.03,40.78h-9.83l-4.63-7.52h-22.27L252.39,303.93z M353.32,311.45v-35.28h-8.39v38.75
	c0,1.16,0.58,2.02,1.16,2.89c0.87,0.87,1.74,1.16,2.89,1.16h37.6l4.92-7.52H353.32z M217.11,305.08c8.1,0,14.46-6.36,14.46-14.46
	s-6.36-14.46-14.46-14.46h-36.15v42.8h8.39v-35.28h27.18c3.76,0.29,6.65,3.47,6.65,7.23c-0.29,3.47-2.89,6.36-6.65,6.65h-23.14
	l24.58,21.4h11.86l-16.48-13.88H217.11z M130.35,318.97h24.87c11.86,0,21.4-9.54,21.4-21.4c0-11.86-9.54-21.4-21.4-21.4h-24.87
	c-11.86,0-21.69,9.54-21.69,21.4C108.66,309.42,118.49,318.97,130.35,318.97z M154.64,311.45h-24c-7.52-0.29-13.59-6.65-13.3-14.46
	c0.29-7.23,6.07-13.01,13.3-13.3h24c7.52-0.29,14.17,5.78,14.46,13.3c0.29,7.52-5.78,14.17-13.3,14.46
	C155.22,311.45,154.93,311.45,154.64,311.45z M311.09,318.97h25.45l4.92-7.52h-29.79c-7.52,0.29-14.17-5.78-14.46-13.3
	c-0.29-7.52,5.78-14.17,13.3-14.46c0.29,0,0.58,0,0.87,0h24.29l4.92-7.52h-29.5c-11.86,0-21.4,9.54-21.4,21.4
	C289.69,309.42,299.24,318.97,311.09,318.97z M412.02,311.45c-6.07,0-11.57-4.05-13.3-10.12H434l4.92-7.52h-40.2
	c1.73-6.07,7.23-10.12,13.3-10.12h24.29l4.92-7.52h-29.5c-11.86,0-21.4,9.54-21.4,21.4c0,11.86,9.54,21.4,21.4,21.4h25.45l4.92-7.52
	H412.02z"/>
</svg>
